<svg xmlns="http://www.w3.org/2000/svg" version="1.1" xmlns:xlink="http://www.w3.org/1999/xlink" xmlns:svgjs="http://svgjs.dev/svgjs" width="1000" height="237" viewBox="0 0 1000 237"><g transform="matrix(1,0,0,1,-0.6060513417446032,0.02666120243873138)"><svg viewBox="0 0 396 94" data-background-color="#ffffff" preserveAspectRatio="xMidYMid meet" height="237" width="1000" xmlns="http://www.w3.org/2000/svg" xmlns:xlink="http://www.w3.org/1999/xlink"><g id="tight-bounds" transform="matrix(1,0,0,1,0.23999633133087173,-0.01057448535544836)"><svg viewBox="0 0 395.52 94.02114897071088" height="94.02114897071088" width="395.52"><g><svg viewBox="0 0 542.3396995531541 128.9224354885156" height="94.02114897071088" width="395.52"><g transform="matrix(1,0,0,1,146.81969955315412,17.817789564621187)"><svg viewBox="0 0 395.52 93.28685635927322" height="93.28685635927322" width="395.52"><g id="textblocktransform"><svg viewBox="0 0 395.52 93.28685635927322" height="93.28685635927322" width="395.52" id="textblock"><g><svg viewBox="0 0 395.52 93.28685635927322" height="93.28685635927322" width="395.52"><g transform="matrix(1,0,0,1,0,0)"><svg width="395.52" viewBox="1.5499999523162842 -33.95000076293945 145.83999633789062 34.400001525878906" height="93.28685635927322" data-palette-color="#12045a"><g class="undefined-text-0" data-fill-palette-color="primary" id="text-0"><path d="M25.15-33.7L30.65-33.7 19 0 12.9 0 1.55-33.7 7.05-33.7 11.35-20.3Q12.75-16 13.9-12.08 15.05-8.15 15.5-6.4L15.5-6.4 16-4.6Q17.6-10.6 20.8-20.3L20.8-20.3 25.15-33.7ZM40.95-14.7L40.95-4.3 55.25-4.3 55.25 0 35.8 0 35.8-33.7 55-33.7 55-29.4 40.95-29.4 40.95-19 53.4-19 53.4-14.7 40.95-14.7ZM66.75-29.3L66.75-4.35 72.05-4.35Q77.8-4.35 80.8-7.95 83.8-11.55 83.8-17.2L83.8-17.2Q83.8-22.4 80.55-25.85 77.3-29.3 71.9-29.3L71.9-29.3 66.75-29.3ZM61.5 0L61.5-33.7 72-33.7Q79.5-33.7 84.3-29.05 89.09-24.4 89.09-17.2L89.09-17.2Q89.09-9.7 84.57-4.85 80.05 0 72.09 0L72.09 0 61.5 0ZM115.09-12.8L115.09-12.8 115.09-33.7 120.24-33.7 120.24-12.9Q120.24-6.35 116.84-2.95 113.44 0.45 107.44 0.45L107.44 0.45Q101.54 0.45 98.14-2.88 94.74-6.2 94.74-12.5L94.74-12.5 94.74-33.7 99.89-33.7 99.89-12.55Q99.89-8.25 101.97-6.28 104.04-4.3 107.44-4.3L107.44-4.3Q115.09-4.3 115.09-12.8ZM145.64-32.35L145.64-32.35 145.64-27.25Q142.29-29.35 138.04-29.35L138.04-29.35Q135.29-29.35 133.72-28.13 132.14-26.9 132.14-24.9 132.14-22.9 133.69-21.7 135.24-20.5 138.44-19.1L138.44-19.1Q140.54-18.2 141.72-17.55 142.89-16.9 144.42-15.73 145.94-14.55 146.67-12.93 147.39-11.3 147.39-9.2L147.39-9.2Q147.39-4.75 144.24-2.2 141.09 0.35 136.09 0.35L136.09 0.35Q130.54 0.35 126.89-1.8L126.89-1.8 126.89-7.15Q130.84-4.2 136.04-4.2L136.04-4.2Q138.79-4.2 140.39-5.48 141.99-6.75 141.99-9L141.99-9Q141.99-10.35 141.04-11.48 140.09-12.6 138.99-13.18 137.89-13.75 135.69-14.75L135.69-14.75Q134.39-15.35 133.87-15.6 133.34-15.85 132.14-16.5 130.94-17.15 130.37-17.6 129.79-18.05 128.94-18.85 128.09-19.65 127.72-20.45 127.34-21.25 127.02-22.33 126.69-23.4 126.69-24.65L126.69-24.65Q126.69-28.95 129.82-31.45 132.94-33.95 137.89-33.95L137.89-33.95Q142.44-33.95 145.64-32.35Z" fill="#12045a" data-fill-palette-color="primary"></path></g></svg></g></svg></g></svg></g></svg></g><g><svg viewBox="0 0 124.79691165128234 128.9224354885156" height="128.9224354885156" width="124.79691165128234"><g><svg xmlns="http://www.w3.org/2000/svg" xmlns:xlink="http://www.w3.org/1999/xlink" version="1.1" x="0" y="0" viewBox="1.5999999046325684 0 96.79999542236328 100" style="enable-background:new 0 0 100 100;" xml:space="preserve" height="128.9224354885156" width="124.79691165128234" class="icon-icon-0" data-fill-palette-color="accent" id="icon-0"><g fill="#12045a" data-fill-palette-color="accent"><g fill="#12045a" data-fill-palette-color="accent"><g fill="#12045a" data-fill-palette-color="accent"><g fill="#12045a" data-fill-palette-color="accent"><g fill="#12045a" data-fill-palette-color="accent"><g fill="#12045a" data-fill-palette-color="accent"><g fill="#12045a" data-fill-palette-color="accent"><path d="M8.7 71.4c-3.9 0-7.1-3.2-7.1-7.1V53.7c0-2.3 1-4.5 2.8-6l5-4.1c0.5-0.4 1.2-0.3 1.6 0.2 0.4 0.5 0.3 1.2-0.2 1.6l-5 4.1c-1.3 1-2 2.6-2 4.2v10.7c0 2.6 2.1 4.8 4.8 4.8 0.6 0 1.1 0.5 1.1 1.1C9.8 70.9 9.3 71.4 8.7 71.4z" fill="#12045a" data-fill-palette-color="accent"></path></g><g fill="#12045a" data-fill-palette-color="accent"><path d="M24.4 100h-1.6c-0.6 0-1.1-0.5-1.1-1.1 0-0.6 0.5-1.1 1.1-1.1h1.6c2.2 0 4-1.8 4-4V54.4l6.5 4.4c0.6 0.4 1.4 0.6 2.1 0.4 0.7-0.2 1.4-0.6 1.7-1.3l5.3-9.3c0.4-0.6 0.4-1.3 0.2-2-0.2-0.7-0.7-1.3-1.3-1.6-1.2-0.6-2.7-0.2-3.5 1l-3.7 6.6-9-7.3c-0.5-0.4-0.6-1.1-0.2-1.6 0.4-0.5 1.1-0.6 1.6-0.2l6.9 5.6 2.4-4.3c1.4-2.2 4.2-3 6.5-1.8 1.2 0.6 2.1 1.7 2.4 3 0.4 1.3 0.2 2.6-0.4 3.8L40.7 59c-0.7 1.2-1.9 2.1-3.2 2.4-1.4 0.3-2.8 0-3.9-0.7l-2.9-2v35C30.7 97.2 27.9 100 24.4 100z" fill="#12045a" data-fill-palette-color="accent"></path></g><g fill="#12045a" data-fill-palette-color="accent"><path d="M14.1 100c-3.5 0-6.3-2.8-6.3-6.3v-35l0-3.5c0-0.6 0.5-1.1 1.1-1.1 0 0 0 0 0 0 0.6 0 1.1 0.5 1.1 1.2l0 3.5v34.9c0 2.2 1.8 4 4 4 2.2 0 4-1.8 4-4V73.3c0-0.6 0.5-1.1 1.1-1.1 0.6 0 1.1 0.5 1.1 1.1v20.4C20.4 97.2 17.6 100 14.1 100z" fill="#12045a" data-fill-palette-color="accent"></path></g><g fill="#12045a" data-fill-palette-color="accent"><path d="M19.3 43.9c-6.3 0-11.5-5.2-11.5-11.5 0-6.3 5.2-11.5 11.5-11.5s11.5 5.2 11.5 11.5C30.7 38.7 25.6 43.9 19.3 43.9zM19.3 23.2c-5.1 0-9.2 4.1-9.2 9.2 0 5.1 4.1 9.2 9.2 9.2s9.2-4.1 9.2-9.2C28.5 27.3 24.3 23.2 19.3 23.2z" fill="#12045a" data-fill-palette-color="accent"></path></g></g></g></g></g></g><g fill="#12045a" data-fill-palette-color="accent"><g fill="#12045a" data-fill-palette-color="accent"><g fill="#12045a" data-fill-palette-color="accent"><g fill="#12045a" data-fill-palette-color="accent"><g fill="#12045a" data-fill-palette-color="accent"><g fill="#12045a" data-fill-palette-color="accent"><g fill="#12045a" data-fill-palette-color="accent"><path d="M68.8 100c-0.6 0-1.1-0.5-1.1-1.1v-3.6c0-2-0.9-3.9-2.4-5.2l-6.1-5.3c-0.5-0.4-0.5-1.1-0.1-1.6 0.4-0.5 1.1-0.5 1.6-0.1l6.1 5.3c2 1.7 3.2 4.3 3.2 6.9v3.6C69.9 99.5 69.4 100 68.8 100z" fill="#12045a" data-fill-palette-color="accent"></path></g><g fill="#12045a" data-fill-palette-color="accent"><path d="M40.4 100c-0.6 0-1.1-0.5-1.1-1.1v-3.5c0-2.7 1.2-5.2 3.2-7l6.3-5.3c0.5-0.4 1.2-0.3 1.6 0.1 0.4 0.5 0.3 1.2-0.1 1.6l-6.3 5.3c-1.5 1.3-2.4 3.2-2.4 5.2v3.5C41.5 99.5 41 100 40.4 100z" fill="#12045a" data-fill-palette-color="accent"></path></g></g><g fill="#12045a" data-fill-palette-color="accent"><path d="M54.7 87.3c-5.3 0-9.5-5-9.5-11.1 0-6.1 4.3-11.1 9.5-11.1 5.3 0 9.5 5 9.5 11.1C64.2 82.3 59.9 87.3 54.7 87.3zM54.7 67.3c-4 0-7.3 4-7.3 8.9 0 4.9 3.3 8.9 7.3 8.9 4 0 7.3-4 7.3-8.9C61.9 71.2 58.7 67.3 54.7 67.3z" fill="#12045a" data-fill-palette-color="accent"></path></g></g></g></g><g fill="#12045a" data-fill-palette-color="accent"><g fill="#12045a" data-fill-palette-color="accent"><g fill="#12045a" data-fill-palette-color="accent"><g fill="#12045a" data-fill-palette-color="accent"><g fill="#12045a" data-fill-palette-color="accent"><path d="M97.2 100c-0.6 0-1.1-0.5-1.1-1.1v-3.6c0-2-0.9-3.9-2.4-5.2l-6.1-5.3c-0.5-0.4-0.5-1.1-0.1-1.6 0.4-0.5 1.1-0.5 1.6-0.1l6.1 5.3c2 1.7 3.2 4.3 3.2 6.9v3.6C98.3 99.5 97.8 100 97.2 100z" fill="#12045a" data-fill-palette-color="accent"></path></g><g fill="#12045a" data-fill-palette-color="accent"><path d="M68.8 96.5c-0.6 0-1.1-0.5-1.1-1.1 0-2.7 1.2-5.2 3.2-7l6.3-5.3c0.5-0.4 1.2-0.3 1.6 0.1 0.4 0.5 0.3 1.2-0.1 1.6l-6.3 5.3c-1.5 1.3-2.4 3.2-2.4 5.2C69.9 96 69.4 96.5 68.8 96.5z" fill="#12045a" data-fill-palette-color="accent"></path></g></g><g fill="#12045a" data-fill-palette-color="accent"><path d="M83.1 87.3c-5.3 0-9.5-5-9.5-11.1 0-6.1 4.3-11.1 9.5-11.1 5.3 0 9.5 5 9.5 11.1C92.6 82.3 88.3 87.3 83.1 87.3zM83.1 67.3c-4 0-7.3 4-7.3 8.9 0 4.9 3.3 8.9 7.3 8.9 4 0 7.3-4 7.3-8.9C90.3 71.2 87.1 67.3 83.1 67.3z" fill="#12045a" data-fill-palette-color="accent"></path></g></g></g></g></g></g><g fill="#12045a" data-fill-palette-color="accent"><g fill="#12045a" data-fill-palette-color="accent"><path d="M44.2 37.3l-4.5-9.4h-5.6c-0.6 0-1.1-0.5-1.1-1.1 0-0.6 0.5-1.1 1.1-1.1h7l3 6.4 3-6.4h22c1.8 0 3.2-1.4 3.2-3.2V5.5c0-1.8-1.4-3.2-3.2-3.2H23.8c-1.8 0-3.2 1.4-3.2 3.2v12.4c0 0.6-0.5 1.1-1.1 1.1-0.6 0-1.1-0.5-1.1-1.1V5.5c0-3 2.5-5.5 5.5-5.5h45.4c3 0 5.5 2.5 5.5 5.5v16.9c0 3-2.5 5.5-5.5 5.5H48.7L44.2 37.3z" fill="#12045a" data-fill-palette-color="accent"></path></g><g fill="#12045a" data-fill-palette-color="accent"><circle cx="40.2" cy="13.1" r="1.6" fill="#12045a" data-fill-palette-color="accent"></circle><circle cx="47" cy="13.1" r="1.6" fill="#12045a" data-fill-palette-color="accent"></circle><circle cx="53.8" cy="13.1" r="1.6" fill="#12045a" data-fill-palette-color="accent"></circle></g></g></g></svg></g></svg></g></svg></g><defs></defs></svg><rect width="395.52" height="94.02114897071088" fill="none" stroke="none" visibility="hidden"></rect></g></svg></g></svg>